<?xml version="1.0" encoding="utf-8"?>
<!-- Generator: Adobe Illustrator 23.0.2, SVG Export Plug-In . SVG Version: 6.00 Build 0)  -->
<svg version="1.1" id="Ebene_1" xmlns="http://www.w3.org/2000/svg" xmlns:xlink="http://www.w3.org/1999/xlink" x="0px" y="0px"
	 viewBox="0 0 175 145" style="enable-background:new 0 0 175 145;" xml:space="preserve">
<style type="text/css">
	.st0{fill:#0F99D3;}
</style>
<path class="st0" d="M174,2c-0.3,7.2-1.9,14.2-4.1,21c-2.2,6.8-5.1,13.5-8.6,19.8c-3.6,6.3-7.8,12.3-12.5,17.8
	c-4.8,5.5-10.1,10.5-15.8,15.1l-4.3,3.4l-4.5,3.2c-1.5,1.1-3,2.1-4.5,3.1s-3.1,2-4.6,2.9l-4.8,2.6c-1.6,0.9-3.3,1.6-4.9,2.4
	c-1.7,0.7-3.3,1.5-5,2.1l-5.2,1.8l-2.6,0.9L90,98.8l-5.3,1.4c-0.9,0.2-1.8,0.4-2.6,0.6l-2.7,0.5c-1.8,0.3-3.6,0.7-5.3,1
	c-3.6,0.5-7.2,0.8-10.8,1.1c-3.6,0.1-7.2,0.2-10.8,0.1c-0.3,0-0.5-0.2-0.5-0.5c0-0.2,0.1-0.4,0.3-0.5l0,0c3.4-1.4,6.7-2.5,10.1-3.6
	c3.3-1.2,6.6-2.4,9.9-3.5c3.3-1.3,6.5-2.4,9.8-3.7l4.8-1.9l2.4-0.9l2.4-1l4.7-2c1.6-0.7,3.1-1.4,4.7-2.1c3.2-1.3,6.2-2.8,9.3-4.2
	c1.6-0.7,3.1-1.5,4.6-2.3s3.1-1.5,4.5-2.4l4.4-2.6l4.3-2.9c5.6-4,10.9-8.4,15.7-13.2c4.9-4.8,9.3-10.2,13.2-15.9s7.2-11.8,10-18.2
	c1.3-3.2,2.6-6.5,3.6-9.8s1.9-6.8,2.4-10.2l0,0c0-0.3,0.3-0.5,0.6-0.4C173.9,1.5,174,1.8,174,2z"/>
<path class="st0" d="M97.8,142.7c-0.9-2-2.5-3.4-4-4.8c-1.6-1.3-3.3-2.5-5-3.5c-3.4-2.1-7-3.9-10.6-5.6c-7.2-3.3-14.7-5.9-22.2-8.2
	c-7.5-2.3-15.2-3.9-22.8-5.3c-5.2-0.9-10.4-1.9-15.6-2.8c2.9-2.6,5.7-5.2,8.6-7.8l14.2-13.1l14.2-13.2c4.7-4.4,9.4-8.8,14.1-13.2
	c0.2-0.2,0.2-0.5,0.1-0.7c-0.2-0.2-0.5-0.3-0.7-0.1c-5.1,3.9-10.3,7.8-15.4,11.8l-15.3,12l-15.3,11.9c-5.1,4-10.1,8-15.2,12l-6,4.7
	l7.7,1.8c7.5,1.8,15,3.7,22.4,5.8c7.4,2.2,14.8,4.3,22.3,6.1l22.4,5.3c3.7,0.9,7.4,1.8,11.1,2.9c1.8,0.5,3.6,1.1,5.4,1.8
	c0.9,0.3,1.7,0.7,2.5,1.1c0.8,0.4,1.6,0.9,2.3,1.5l0,0c0.1,0.1,0.4,0.2,0.6,0.1C97.8,143.3,97.9,143,97.8,142.7z"/>
</svg>
