<?xml version="1.0" encoding="UTF-8" standalone="no"?><!DOCTYPE svg PUBLIC "-//W3C//DTD SVG 1.1//EN" "http://www.w3.org/Graphics/SVG/1.1/DTD/svg11.dtd"><svg width="100%" height="100%" viewBox="0 0 460 190" version="1.1" xmlns="http://www.w3.org/2000/svg" xmlns:xlink="http://www.w3.org/1999/xlink" xml:space="preserve" style="fill-rule:evenodd;clip-rule:evenodd;stroke-linejoin:round;stroke-miterlimit:1.41421;"><g id="Ebene-1"><g><path d="M436.957,148.111c0,-1.549 -0.328,-2.892 -0.982,-4.027c-0.965,-1.618 -2.427,-2.428 -4.389,-2.428c-1.755,0 -3.21,0.594 -4.364,1.782c-1.153,1.187 -1.852,2.746 -2.091,4.673l11.826,0ZM442.327,150.331c0,0.31 -0.018,0.697 -0.053,1.162c-0.034,0.466 -0.05,0.749 -0.05,0.853l-17.093,0c0,1.79 0.534,3.339 1.602,4.648c1.306,1.549 3.166,2.323 5.577,2.323c2.065,0 4.37,-0.637 6.918,-1.911l1.964,3.719c-2.582,1.824 -5.699,2.736 -9.348,2.736c-3.856,0 -6.885,-1.256 -9.088,-3.769c-2.135,-2.375 -3.203,-5.474 -3.203,-9.295c0,-3.959 1.102,-7.195 3.307,-9.709c2.202,-2.512 5.077,-3.769 8.622,-3.769c3.41,0 6.068,1.154 7.979,3.459c1.909,2.307 2.866,5.492 2.866,9.553" style="fill:#787d7f;fill-rule:nonzero;"/><path d="M412.526,163.241l-5.681,0l0,-25.2l5.681,0l0,25.2ZM412.989,130.502c0,0.93 -0.319,1.714 -0.956,2.35c-0.637,0.637 -1.42,0.955 -2.347,0.955c-0.931,0 -1.723,-0.318 -2.377,-0.955c-0.654,-0.636 -0.98,-1.42 -0.98,-2.35c0,-0.929 0.326,-1.72 0.98,-2.375c0.654,-0.654 1.446,-0.981 2.377,-0.981c0.927,0 1.71,0.327 2.347,0.981c0.637,0.655 0.956,1.446 0.956,2.375" style="fill:#787d7f;fill-rule:nonzero;"/><path d="M398.805,163.241l-5.68,0l0,-14.252c0,-2.892 -0.345,-4.751 -1.033,-5.577c-0.69,-0.826 -1.723,-1.239 -3.099,-1.239c-1.756,0 -3.633,0.653 -5.629,1.962c0.239,0.689 0.36,2.601 0.36,5.732l0,13.374l-5.627,0l0,-13.89c0,-3.27 -0.396,-5.319 -1.188,-6.146c-0.654,-0.687 -1.6,-1.032 -2.84,-1.032c-1.858,0 -3.666,0.585 -5.422,1.755l0,19.313l-5.681,0l0,-25.199l4.959,0l0,1.859c2.339,-1.722 4.802,-2.582 7.384,-2.582c2.614,0 4.68,0.947 6.197,2.84c2.891,-1.893 5.68,-2.84 8.365,-2.84c2.65,0 4.732,0.758 6.247,2.272c1.206,1.206 1.997,2.771 2.376,4.699c0.205,1.205 0.311,3.322 0.311,6.351l0,12.6Z" style="fill:#787d7f;fill-rule:nonzero;"/><path d="M350.5,148.111c0,-1.549 -0.326,-2.892 -0.98,-4.027c-0.965,-1.618 -2.429,-2.428 -4.389,-2.428c-1.757,0 -3.212,0.594 -4.366,1.782c-1.153,1.187 -1.85,2.746 -2.089,4.673l11.824,0ZM355.87,150.331c0,0.31 -0.016,0.697 -0.051,1.162c-0.034,0.466 -0.052,0.749 -0.052,0.853l-17.091,0c0,1.79 0.532,3.339 1.6,4.648c1.308,1.549 3.166,2.323 5.577,2.323c2.065,0 4.37,-0.637 6.918,-1.911l1.964,3.719c-2.582,1.824 -5.699,2.736 -9.346,2.736c-3.857,0 -6.887,-1.256 -9.09,-3.769c-2.133,-2.375 -3.201,-5.474 -3.201,-9.295c0,-3.959 1.102,-7.195 3.305,-9.709c2.202,-2.512 5.077,-3.769 8.622,-3.769c3.41,0 6.068,1.154 7.981,3.459c1.909,2.307 2.864,5.492 2.864,9.553" style="fill:#787d7f;fill-rule:nonzero;"/><path d="M320.261,157.406l0,-13.994c-1.378,-0.895 -2.859,-1.343 -4.442,-1.343c-2.168,0 -3.933,0.775 -5.293,2.324c-1.359,1.549 -2.039,3.701 -2.039,6.455c0,2.513 0.638,4.527 1.91,6.041c1.273,1.517 2.874,2.273 4.804,2.273c1.617,0 3.303,-0.585 5.06,-1.756M325.941,163.241l-4.958,0l0,-1.807c-2.271,1.619 -4.595,2.427 -6.971,2.427c-3.374,0 -6.094,-1.195 -8.159,-3.589c-2.066,-2.392 -3.099,-5.5 -3.099,-9.321c0,-3.958 1.18,-7.22 3.539,-9.786c2.358,-2.563 5.258,-3.846 8.701,-3.846c1.824,0 3.579,0.431 5.267,1.291l0,-12.704l5.68,0l0,37.335Z" style="fill:#787d7f;fill-rule:nonzero;"/><path d="M290.486,157.664l0,-6.66l-1.188,0c-3.959,0 -6.576,0.653 -7.849,1.961c-0.656,0.655 -0.982,1.516 -0.982,2.582c0,1.239 0.421,2.186 1.264,2.84c0.844,0.655 1.903,0.981 3.178,0.981c1.617,0 3.475,-0.567 5.577,-1.704M295.855,163.241l-4.958,0l0,-1.858c-2.477,1.583 -4.955,2.374 -7.435,2.374c-2.445,0 -4.407,-0.731 -5.886,-2.194c-1.481,-1.463 -2.22,-3.383 -2.22,-5.758c0,-5.887 4.732,-8.83 14.2,-8.83l0.93,0l0,-0.981c0,-1.55 -0.277,-2.599 -0.827,-3.15c-0.758,-0.756 -2.118,-1.135 -4.079,-1.135c-2.239,0 -4.51,0.653 -6.818,1.961l-1.96,-3.667c0.584,-0.516 1.479,-1.014 2.685,-1.497c1.994,-0.826 4.181,-1.239 6.557,-1.239c3.441,0 6.059,0.895 7.849,2.686c0.896,0.895 1.463,2.014 1.704,3.356c0.172,0.861 0.258,2.341 0.258,4.44l0,15.492Z" style="fill:#787d7f;fill-rule:nonzero;"/><path d="M271.517,163.241l-6.868,0l-10.226,-12.703l0,12.703l-5.679,0l0,-37.335l5.679,0l0,22.928l9.968,-10.792l6.815,0l-10.895,11.463l11.206,13.736Z" style="fill:#787d7f;fill-rule:nonzero;"/><path d="M235.234,157.664l0,-6.66l-1.188,0c-3.958,0 -6.576,0.653 -7.849,1.961c-0.654,0.655 -0.981,1.516 -0.981,2.582c0,1.239 0.421,2.186 1.265,2.84c0.843,0.655 1.902,0.981 3.176,0.981c1.618,0 3.476,-0.567 5.577,-1.704M240.604,163.241l-4.957,0l0,-1.858c-2.479,1.583 -4.957,2.374 -7.436,2.374c-2.445,0 -4.407,-0.731 -5.887,-2.194c-1.481,-1.463 -2.22,-3.383 -2.22,-5.758c0,-5.887 4.733,-8.83 14.2,-8.83l0.93,0l0,-0.981c0,-1.55 -0.276,-2.599 -0.826,-3.15c-0.758,-0.756 -2.118,-1.135 -4.08,-1.135c-2.238,0 -4.51,0.653 -6.816,1.961l-1.962,-3.667c0.584,-0.516 1.48,-1.014 2.685,-1.497c1.996,-0.826 4.183,-1.239 6.558,-1.239c3.442,0 6.058,0.895 7.849,2.686c0.895,0.895 1.462,2.014 1.704,3.356c0.173,0.861 0.258,2.341 0.258,4.44l0,15.492Z" style="fill:#787d7f;fill-rule:nonzero;"/></g><g><path d="M257.181,113.668l-5.68,0l0,-14.252c0,-2.892 -0.344,-4.751 -1.033,-5.577c-0.689,-0.827 -1.722,-1.24 -3.098,-1.24c-1.757,0 -3.633,0.654 -5.629,1.963c0.239,0.688 0.36,2.6 0.36,5.732l0,13.374l-5.627,0l0,-13.891c0,-3.27 -0.397,-5.319 -1.188,-6.145c-0.655,-0.688 -1.601,-1.033 -2.84,-1.033c-1.859,0 -3.666,0.586 -5.422,1.756l0,19.313l-5.681,0l0,-25.2l4.958,0l0,1.859c2.34,-1.721 4.802,-2.582 7.384,-2.582c2.615,0 4.681,0.947 6.197,2.84c2.892,-1.893 5.68,-2.84 8.365,-2.84c2.652,0 4.733,0.758 6.247,2.272c1.206,1.206 1.997,2.772 2.376,4.7c0.206,1.205 0.311,3.322 0.311,6.351l0,12.6Z" style="fill:#2e6fa9;fill-rule:nonzero;"/><path d="M276.888,108.091l0,-6.661l-1.187,0c-3.96,0 -6.577,0.654 -7.849,1.961c-0.656,0.655 -0.983,1.517 -0.983,2.582c0,1.24 0.422,2.187 1.265,2.841c0.843,0.654 1.902,0.981 3.177,0.981c1.618,0 3.476,-0.567 5.577,-1.704M282.258,113.668l-4.959,0l0,-1.858c-2.476,1.583 -4.955,2.374 -7.435,2.374c-2.444,0 -4.406,-0.731 -5.885,-2.195c-1.481,-1.462 -2.221,-3.382 -2.221,-5.757c0,-5.887 4.732,-8.831 14.201,-8.831l0.929,0l0,-0.981c0,-1.549 -0.276,-2.598 -0.827,-3.15c-0.758,-0.757 -2.118,-1.136 -4.078,-1.136c-2.239,0 -4.51,0.655 -6.819,1.962l-1.96,-3.666c0.585,-0.516 1.479,-1.015 2.685,-1.497c1.995,-0.827 4.181,-1.24 6.557,-1.24c3.442,0 6.06,0.897 7.85,2.686c0.895,0.896 1.462,2.013 1.704,3.357c0.171,0.86 0.258,2.34 0.258,4.44l0,15.492Z" style="fill:#2e6fa9;fill-rule:nonzero;"/><path d="M304.241,88.313l-1.291,4.39c-0.482,-0.103 -1.051,-0.155 -1.704,-0.155c-3.064,0 -5.491,1.291 -7.28,3.873l0,17.247l-5.68,0l0,-25.2l4.956,0l0,3.202c0.413,-0.654 1.169,-1.343 2.273,-2.066c1.823,-1.239 3.802,-1.859 5.938,-1.859c0.997,0 1.927,0.189 2.788,0.568" style="fill:#2e6fa9;fill-rule:nonzero;"/><path d="M331.057,113.668l-6.868,0l-10.224,-12.703l0,12.703l-5.68,0l0,-37.335l5.68,0l0,22.928l9.966,-10.793l6.817,0l-10.897,11.464l11.206,13.736Z" style="fill:#2e6fa9;fill-rule:nonzero;"/><path d="M349.35,98.537c0,-1.549 -0.326,-2.891 -0.98,-4.026c-0.964,-1.619 -2.429,-2.428 -4.389,-2.428c-1.757,0 -3.212,0.593 -4.366,1.782c-1.153,1.187 -1.849,2.745 -2.089,4.672l11.824,0ZM354.72,100.758c0,0.31 -0.016,0.697 -0.051,1.162c-0.034,0.466 -0.051,0.748 -0.051,0.853l-17.092,0c0,1.79 0.532,3.339 1.6,4.647c1.308,1.549 3.166,2.324 5.577,2.324c2.065,0 4.371,-0.637 6.918,-1.912l1.964,3.719c-2.582,1.824 -5.699,2.736 -9.346,2.736c-3.857,0 -6.886,-1.256 -9.089,-3.768c-2.134,-2.376 -3.202,-5.474 -3.202,-9.295c0,-3.959 1.102,-7.196 3.305,-9.71c2.202,-2.511 5.077,-3.769 8.623,-3.769c3.409,0 6.067,1.153 7.98,3.46c1.91,2.307 2.864,5.492 2.864,9.553" style="fill:#2e6fa9;fill-rule:nonzero;"/><path d="M375.692,112.842c-1.583,0.998 -3.546,1.498 -5.885,1.498c-2.654,0 -4.682,-0.706 -6.095,-2.119c-0.895,-0.894 -1.464,-2.029 -1.704,-3.407c-0.137,-0.757 -0.206,-2.203 -0.206,-4.339l0,-11.359l-4.389,0l0,-4.648l4.389,0l0,-7.074l5.681,0l0,7.074l7.435,0l0,4.648l-7.435,0l0,11.876c0,1.481 0.155,2.514 0.464,3.098c0.482,0.965 1.462,1.447 2.943,1.447c0.861,0 1.981,-0.224 3.356,-0.672l1.446,3.977Z" style="fill:#2e6fa9;fill-rule:nonzero;"/><path d="M385.708,113.668l-5.681,0l0,-25.2l5.681,0l0,25.2ZM386.171,80.929c0,0.929 -0.318,1.713 -0.956,2.349c-0.637,0.638 -1.42,0.956 -2.348,0.956c-0.929,0 -1.722,-0.318 -2.376,-0.956c-0.654,-0.636 -0.98,-1.42 -0.98,-2.349c0,-0.93 0.326,-1.721 0.98,-2.376c0.654,-0.653 1.447,-0.981 2.376,-0.981c0.928,0 1.711,0.328 2.348,0.981c0.638,0.655 0.956,1.446 0.956,2.376" style="fill:#2e6fa9;fill-rule:nonzero;"/><path d="M413.278,113.668l-5.68,0l0,-13.788c0,-3.339 -0.379,-5.387 -1.136,-6.145c-0.756,-0.757 -1.825,-1.136 -3.201,-1.136c-1.755,0 -3.633,0.62 -5.628,1.859l0,19.21l-5.68,0l0,-25.2l4.955,0l0,1.859c2.377,-1.721 4.872,-2.582 7.488,-2.582c2.651,0 4.751,0.775 6.3,2.324c1.17,1.171 1.928,2.617 2.273,4.338c0.206,1.032 0.309,2.755 0.309,5.164l0,14.097Z" style="fill:#2e6fa9;fill-rule:nonzero;"/><path d="M435.511,107.368l0,-14.046c-1.446,-0.619 -2.908,-0.929 -4.39,-0.929c-2.168,0 -3.941,0.783 -5.318,2.349c-1.376,1.567 -2.066,3.658 -2.066,6.275c0,2.444 0.629,4.397 1.886,5.86c1.257,1.463 2.83,2.195 4.724,2.195c1.928,0 3.649,-0.567 5.164,-1.704M441.14,113.512c0,2.238 -0.12,3.891 -0.362,4.959c-0.38,1.514 -1.117,2.84 -2.219,3.976c-2.102,2.1 -5.08,3.149 -8.934,3.149c-2.79,0 -5.354,-0.55 -7.695,-1.651c-1.481,-0.655 -2.495,-1.291 -3.047,-1.912l2.376,-3.717c2.959,1.685 5.541,2.53 7.746,2.53c2.098,0 3.708,-0.491 4.828,-1.471c1.119,-0.982 1.678,-2.902 1.678,-5.758l0,-1.705c-2.066,1.171 -4.182,1.756 -6.352,1.756c-3.478,0 -6.232,-1.24 -8.262,-3.718c-1.929,-2.306 -2.891,-5.198 -2.891,-8.675c0,-3.855 1.23,-7.074 3.691,-9.656c2.462,-2.582 5.638,-3.873 9.528,-3.873c3.063,0 6.37,0.843 9.915,2.53l0,23.236Z" style="fill:#2e6fa9;fill-rule:nonzero;"/></g><g><path d="M257.181,64.095l-5.68,0l0,-14.253c0,-2.892 -0.344,-4.751 -1.033,-5.577c-0.689,-0.826 -1.722,-1.239 -3.098,-1.239c-1.757,0 -3.633,0.654 -5.629,1.962c0.239,0.689 0.36,2.6 0.36,5.732l0,13.375l-5.627,0l0,-13.891c0,-3.27 -0.397,-5.319 -1.188,-6.145c-0.655,-0.688 -1.601,-1.033 -2.84,-1.033c-1.859,0 -3.666,0.585 -5.422,1.756l0,19.313l-5.681,0l0,-25.2l4.958,0l0,1.859c2.34,-1.722 4.802,-2.582 7.384,-2.582c2.615,0 4.681,0.947 6.197,2.84c2.892,-1.893 5.68,-2.84 8.365,-2.84c2.652,0 4.733,0.758 6.247,2.272c1.206,1.205 1.997,2.772 2.376,4.699c0.206,1.205 0.311,3.323 0.311,6.352l0,12.6Z" style="fill:#787d7f;fill-rule:nonzero;"/><path d="M281.576,31.511c0,0.895 -0.302,1.652 -0.903,2.272c-0.604,0.619 -1.352,0.929 -2.248,0.929c-0.895,0 -1.651,-0.31 -2.271,-0.929c-0.619,-0.62 -0.929,-1.377 -0.929,-2.272c0,-0.896 0.31,-1.653 0.929,-2.272c0.62,-0.62 1.376,-0.93 2.271,-0.93c0.896,0 1.644,0.31 2.248,0.93c0.601,0.619 0.903,1.376 0.903,2.272M272.229,31.511c0,0.895 -0.301,1.652 -0.904,2.272c-0.603,0.619 -1.351,0.929 -2.245,0.929c-0.896,0 -1.654,-0.31 -2.273,-0.929c-0.619,-0.62 -0.93,-1.377 -0.93,-2.272c0,-0.896 0.311,-1.653 0.93,-2.272c0.619,-0.62 1.377,-0.93 2.273,-0.93c0.894,0 1.642,0.31 2.245,0.93c0.603,0.619 0.904,1.376 0.904,2.272M284.675,64.095l-4.959,0l0,-1.911c-2.305,1.722 -4.802,2.582 -7.487,2.582c-2.65,0 -4.75,-0.774 -6.299,-2.324c-1.17,-1.17 -1.93,-2.616 -2.272,-4.337c-0.208,-1.033 -0.31,-2.755 -0.31,-5.164l0,-14.046l5.68,0l0,13.736c0,1.722 0.034,2.858 0.102,3.408c0.172,1.412 0.612,2.41 1.318,2.995c0.706,0.586 1.712,0.878 3.021,0.878c1.445,0 3.286,-0.62 5.525,-1.859l0,-19.158l5.681,0l0,25.2Z" style="fill:#787d7f;fill-rule:nonzero;"/><path d="M312.757,64.095l-5.68,0l0,-13.788c0,-3.339 -0.379,-5.387 -1.136,-6.145c-0.756,-0.757 -1.825,-1.136 -3.201,-1.136c-1.754,0 -3.633,0.62 -5.627,1.859l0,19.21l-5.68,0l0,-25.2l4.955,0l0,1.859c2.376,-1.722 4.871,-2.582 7.487,-2.582c2.652,0 4.751,0.774 6.3,2.324c1.171,1.171 1.929,2.617 2.274,4.337c0.205,1.033 0.308,2.755 0.308,5.164l0,14.098Z" style="fill:#787d7f;fill-rule:nonzero;"/><path d="M339.84,61.771c-0.38,0.413 -1.239,0.929 -2.582,1.549c-2.1,0.93 -4.322,1.394 -6.661,1.394c-3.754,0 -6.791,-1.196 -9.115,-3.589c-2.324,-2.392 -3.486,-5.499 -3.486,-9.32c0,-3.959 1.241,-7.222 3.719,-9.786c2.478,-2.564 5.61,-3.847 9.399,-3.847c2.133,0 4.112,0.431 5.938,1.291c1.238,0.585 2.047,1.118 2.426,1.601l-2.324,3.563c-1.754,-1.17 -3.649,-1.756 -5.68,-1.756c-2.341,0 -4.252,0.878 -5.732,2.634c-1.341,1.618 -2.014,3.58 -2.014,5.886c0,2.548 0.662,4.614 1.989,6.197c1.323,1.583 3.158,2.375 5.499,2.375c1.892,0 4.029,-0.636 6.403,-1.91l2.221,3.718Z" style="fill:#787d7f;fill-rule:nonzero;"/><path d="M365.603,64.095l-5.681,0l0,-13.788c0,-3.339 -0.379,-5.387 -1.136,-6.145c-0.756,-0.757 -1.825,-1.136 -3.2,-1.136c-1.755,0 -3.634,0.62 -5.628,1.859l0,19.21l-5.68,0l0,-37.335l5.68,0l0,13.529c2.237,-1.412 4.492,-2.117 6.763,-2.117c2.651,0 4.75,0.774 6.3,2.324c1.17,1.171 1.928,2.617 2.273,4.337c0.205,1.033 0.309,2.755 0.309,5.164l0,14.098Z" style="fill:#787d7f;fill-rule:nonzero;"/><path d="M393.447,64.095l-5.68,0l0,-13.788c0,-3.339 -0.379,-5.387 -1.136,-6.145c-0.756,-0.757 -1.825,-1.136 -3.201,-1.136c-1.754,0 -3.633,0.62 -5.627,1.859l0,19.21l-5.681,0l0,-25.2l4.956,0l0,1.859c2.376,-1.722 4.871,-2.582 7.487,-2.582c2.652,0 4.751,0.774 6.3,2.324c1.17,1.171 1.929,2.617 2.273,4.337c0.206,1.033 0.309,2.755 0.309,5.164l0,14.098Z" style="fill:#787d7f;fill-rule:nonzero;"/><path d="M416.176,48.964c0,-1.549 -0.326,-2.891 -0.98,-4.027c-0.964,-1.618 -2.429,-2.427 -4.389,-2.427c-1.757,0 -3.212,0.593 -4.366,1.781c-1.153,1.188 -1.849,2.745 -2.089,4.673l11.824,0ZM421.546,51.185c0,0.31 -0.016,0.697 -0.051,1.162c-0.034,0.465 -0.051,0.749 -0.051,0.852l-17.092,0c0,1.79 0.532,3.339 1.6,4.647c1.308,1.55 3.166,2.324 5.577,2.324c2.066,0 4.371,-0.637 6.919,-1.911l1.963,3.719c-2.582,1.824 -5.699,2.736 -9.346,2.736c-3.857,0 -6.886,-1.255 -9.089,-3.769c-2.134,-2.376 -3.202,-5.474 -3.202,-9.295c0,-3.959 1.102,-7.196 3.305,-9.708c2.202,-2.513 5.077,-3.77 8.623,-3.77c3.409,0 6.067,1.154 7.98,3.46c1.91,2.306 2.864,5.491 2.864,9.553" style="fill:#787d7f;fill-rule:nonzero;"/><path d="M443.001,38.74l-1.291,4.389c-0.485,-0.103 -1.052,-0.155 -1.705,-0.155c-3.064,0 -5.493,1.291 -7.282,3.873l0,17.248l-5.68,0l0,-25.2l4.958,0l0,3.202c0.414,-0.654 1.17,-1.343 2.272,-2.066c1.824,-1.239 3.803,-1.859 5.938,-1.859c0.999,0 1.928,0.189 2.79,0.568" style="fill:#787d7f;fill-rule:nonzero;"/></g><path d="M0,95.003c0,52.466 42.532,94.998 94.998,94.998c52.467,0 94.998,-42.532 94.998,-94.998c0,-52.471 -42.531,-95.003 -94.998,-95.003c-52.466,0 -94.998,42.532 -94.998,95.003ZM21.684,95.002c0,-40.494 32.823,-73.318 73.314,-73.318c40.492,0 73.315,32.824 73.315,73.318c0,40.49 -32.823,73.314 -73.315,73.314c-40.491,0 -73.314,-32.824 -73.314,-73.314ZM61.956,95.002c0,18.248 14.793,33.042 33.042,33.042c18.25,0 33.044,-14.794 33.044,-33.042c0,-18.252 -14.794,-33.046 -33.044,-33.046c-18.249,0 -33.042,14.794 -33.042,33.046Z" style="fill:#2e6fa9;"/><path d="M453.549,29.64c1.083,0 2.141,0.278 3.174,0.834c1.032,0.556 1.837,1.352 2.413,2.387c0.576,1.036 0.864,2.115 0.864,3.239c0,1.112 -0.284,2.182 -0.851,3.208c-0.568,1.027 -1.364,1.824 -2.388,2.392c-1.023,0.567 -2.094,0.851 -3.212,0.851c-1.118,0 -2.189,-0.284 -3.213,-0.851c-1.024,-0.568 -1.821,-1.365 -2.392,-2.392c-0.57,-1.026 -0.855,-2.096 -0.855,-3.208c0,-1.124 0.289,-2.203 0.868,-3.239c0.579,-1.035 1.385,-1.831 2.417,-2.387c1.033,-0.556 2.091,-0.834 3.175,-0.834ZM453.549,30.709c-0.907,0 -1.79,0.233 -2.649,0.698c-0.858,0.465 -1.53,1.129 -2.015,1.993c-0.484,0.864 -0.727,1.764 -0.727,2.7c0,0.93 0.238,1.821 0.715,2.674c0.476,0.852 1.142,1.517 1.997,1.993c0.856,0.477 1.749,0.715 2.679,0.715c0.929,0 1.822,-0.238 2.678,-0.715c0.855,-0.476 1.52,-1.141 1.993,-1.993c0.474,-0.853 0.71,-1.744 0.71,-2.674c0,-0.936 -0.241,-1.836 -0.723,-2.7c-0.482,-0.864 -1.153,-1.528 -2.015,-1.993c-0.861,-0.465 -1.742,-0.698 -2.643,-0.698ZM450.716,39.668l0,-6.948l2.388,0c0.815,0 1.406,0.064 1.771,0.193c0.365,0.128 0.656,0.352 0.873,0.671c0.216,0.32 0.325,0.659 0.325,1.018c0,0.508 -0.181,0.95 -0.544,1.327c-0.362,0.376 -0.842,0.587 -1.441,0.633c0.245,0.103 0.442,0.225 0.59,0.368c0.279,0.274 0.622,0.733 1.027,1.377l0.847,1.361l-1.369,0l-0.616,-1.095c-0.485,-0.862 -0.876,-1.401 -1.172,-1.618c-0.206,-0.159 -0.505,-0.239 -0.899,-0.239l-0.659,0l0,2.952l-1.121,0ZM451.837,35.758l1.361,0c0.65,0 1.094,-0.097 1.33,-0.291c0.237,-0.194 0.355,-0.451 0.355,-0.77c0,-0.206 -0.057,-0.39 -0.171,-0.552c-0.114,-0.163 -0.272,-0.284 -0.475,-0.364c-0.202,-0.08 -0.577,-0.12 -1.125,-0.12l-1.275,0l0,2.097Z" style="fill:#787d7f;fill-rule:nonzero;"/></g></svg>