<?xml version="1.0" encoding="UTF-8" standalone="no"?><!DOCTYPE svg PUBLIC "-//W3C//DTD SVG 1.1//EN" "http://www.w3.org/Graphics/SVG/1.1/DTD/svg11.dtd"><svg width="100%" height="100%" viewBox="0 0 630 270" version="1.1" xmlns="http://www.w3.org/2000/svg" xmlns:xlink="http://www.w3.org/1999/xlink" xml:space="preserve" style="fill-rule:evenodd;clip-rule:evenodd;stroke-linejoin:round;stroke-miterlimit:1.41421;"><g id="Ebene-1"><path d="M135.346,178.908c24.212,0 43.84,-19.626 43.84,-43.838c0,-24.213 -19.628,-43.839 -43.84,-43.839c-24.212,0 -43.84,19.626 -43.84,43.839c0,24.212 19.628,43.838 43.84,43.838m0,87.678c72.636,0 131.517,-58.882 131.517,-131.517c0,-72.642 -58.881,-131.524 -131.517,-131.524c-72.636,0 -131.518,58.882 -131.518,131.524c0,72.635 58.882,131.517 131.518,131.517m-101.497,-131.517c0,-56.061 45.442,-101.503 101.497,-101.503c56.056,0 101.497,45.442 101.497,101.503c0,56.053 -45.441,101.497 -101.497,101.497c-56.055,0 -101.497,-45.444 -101.497,-101.497" style="fill:#fff;fill-rule:nonzero;"/><path d="M369.108,91.231l-7.863,0l0,-19.728c0,-4.003 -0.476,-6.576 -1.429,-7.72c-0.954,-1.143 -2.383,-1.715 -4.289,-1.715c-2.432,0 -5.028,0.905 -7.791,2.716c0.332,0.954 0.499,3.598 0.499,7.934l0,18.513l-7.79,0l0,-19.228c0,-4.526 -0.549,-7.362 -1.644,-8.506c-0.906,-0.952 -2.215,-1.429 -3.931,-1.429c-2.573,0 -5.075,0.81 -7.505,2.43l0,26.733l-7.862,0l0,-34.881l6.861,0l0,2.573c3.24,-2.383 6.648,-3.574 10.222,-3.574c3.619,0 6.478,1.311 8.577,3.931c4.003,-2.62 7.862,-3.931 11.579,-3.931c3.67,0 6.55,1.049 8.646,3.145c1.67,1.668 2.765,3.837 3.289,6.504c0.285,1.669 0.431,4.599 0.431,8.792l0,17.441Z" style="fill:#fff;fill-rule:nonzero;"/><path d="M402.875,46.129c0,1.239 -0.419,2.287 -1.251,3.145c-0.835,0.858 -1.871,1.286 -3.111,1.286c-1.239,0 -2.285,-0.428 -3.143,-1.286c-0.858,-0.858 -1.287,-1.906 -1.287,-3.145c0,-1.24 0.429,-2.287 1.287,-3.145c0.858,-0.858 1.904,-1.287 3.143,-1.287c1.24,0 2.276,0.429 3.111,1.287c0.832,0.858 1.251,1.905 1.251,3.145m-12.939,0c0,1.239 -0.416,2.287 -1.251,3.145c-0.835,0.858 -1.87,1.286 -3.108,1.286c-1.239,0 -2.288,-0.428 -3.146,-1.286c-0.856,-0.858 -1.287,-1.906 -1.287,-3.145c0,-1.24 0.431,-2.287 1.287,-3.145c0.858,-0.858 1.907,-1.287 3.146,-1.287c1.238,0 2.273,0.429 3.108,1.287c0.835,0.858 1.251,1.905 1.251,3.145m17.227,45.102l-6.863,0l0,-2.645c-3.19,2.383 -6.647,3.574 -10.364,3.574c-3.668,0 -6.574,-1.072 -8.719,-3.216c-1.619,-1.62 -2.67,-3.621 -3.145,-6.005c-0.287,-1.429 -0.428,-3.812 -0.428,-7.147l0,-19.442l7.862,0l0,19.013c0,2.383 0.047,3.955 0.141,4.717c0.238,1.955 0.847,3.336 1.825,4.146c0.976,0.811 2.37,1.215 4.181,1.215c2,0 4.549,-0.858 7.648,-2.573l0,-26.518l7.862,0l0,34.881Z" style="fill:#fff;fill-rule:nonzero;"/><path d="M446.035,91.231l-7.863,0l0,-19.085c0,-4.622 -0.524,-7.456 -1.572,-8.506c-1.047,-1.047 -2.526,-1.572 -4.43,-1.572c-2.429,0 -5.03,0.858 -7.79,2.573l0,26.59l-7.862,0l0,-34.881l6.858,0l0,2.573c3.29,-2.383 6.744,-3.574 10.365,-3.574c3.669,0 6.575,1.072 8.72,3.217c1.619,1.621 2.669,3.622 3.146,6.004c0.285,1.429 0.428,3.812 0.428,7.147l0,19.514Z" style="fill:#fff;fill-rule:nonzero;"/><path d="M483.521,88.014c-0.525,0.572 -1.714,1.287 -3.574,2.144c-2.906,1.287 -5.981,1.93 -9.219,1.93c-5.196,0 -9.401,-1.655 -12.617,-4.967c-3.217,-3.311 -4.825,-7.613 -4.825,-12.902c0,-5.479 1.717,-9.995 5.148,-13.545c3.429,-3.549 7.765,-5.325 13.009,-5.325c2.953,0 5.692,0.596 8.22,1.787c1.714,0.811 2.833,1.548 3.358,2.216l-3.217,4.932c-2.429,-1.62 -5.051,-2.431 -7.862,-2.431c-3.241,0 -5.886,1.216 -7.934,3.646c-1.857,2.24 -2.788,4.956 -2.788,8.148c0,3.527 0.916,6.386 2.753,8.577c1.832,2.192 4.37,3.288 7.611,3.288c2.619,0 5.577,-0.88 8.863,-2.644l3.074,5.146Z" style="fill:#fff;fill-rule:nonzero;"/><path d="M519.181,91.231l-7.862,0l0,-19.085c0,-4.622 -0.525,-7.456 -1.573,-8.506c-1.046,-1.047 -2.526,-1.572 -4.43,-1.572c-2.429,0 -5.029,0.858 -7.789,2.573l0,26.59l-7.863,0l0,-51.678l7.863,0l0,18.727c3.096,-1.955 6.217,-2.931 9.36,-2.931c3.67,0 6.576,1.072 8.72,3.217c1.62,1.621 2.669,3.622 3.147,6.004c0.284,1.429 0.427,3.812 0.427,7.147l0,19.514Z" style="fill:#fff;fill-rule:nonzero;"/><path d="M557.723,91.231l-7.863,0l0,-19.085c0,-4.622 -0.524,-7.456 -1.572,-8.506c-1.046,-1.047 -2.526,-1.572 -4.43,-1.572c-2.429,0 -5.029,0.858 -7.79,2.573l0,26.59l-7.862,0l0,-34.881l6.859,0l0,2.573c3.289,-2.383 6.743,-3.574 10.364,-3.574c3.67,0 6.576,1.072 8.72,3.217c1.62,1.621 2.669,3.622 3.146,6.004c0.285,1.429 0.428,3.812 0.428,7.147l0,19.514Z" style="fill:#fff;fill-rule:nonzero;"/><path d="M589.184,70.288c0,-2.144 -0.452,-4.003 -1.357,-5.575c-1.335,-2.239 -3.362,-3.36 -6.075,-3.36c-2.432,0 -4.446,0.822 -6.043,2.466c-1.597,1.644 -2.56,3.8 -2.892,6.469l16.367,0Zm7.432,3.073c0,0.429 -0.021,0.965 -0.07,1.609c-0.047,0.643 -0.071,1.036 -0.071,1.179l-23.658,0c0,2.477 0.736,4.622 2.214,6.433c1.812,2.144 4.383,3.216 7.72,3.216c2.859,0 6.05,-0.882 9.576,-2.644l2.718,5.146c-3.574,2.526 -7.888,3.788 -12.936,3.788c-5.339,0 -9.532,-1.738 -12.581,-5.217c-2.954,-3.288 -4.432,-7.577 -4.432,-12.866c0,-5.48 1.526,-9.96 4.575,-13.438c3.047,-3.478 7.027,-5.218 11.935,-5.218c4.719,0 8.398,1.597 11.046,4.789c2.643,3.192 3.964,7.601 3.964,13.223" style="fill:#fff;fill-rule:nonzero;"/><path d="M626.313,56.136l-1.787,6.075c-0.67,-0.143 -1.455,-0.214 -2.359,-0.214c-4.241,0 -7.603,1.787 -10.079,5.361l0,23.873l-7.863,0l0,-34.881l6.863,0l0,4.432c0.572,-0.905 1.619,-1.859 3.144,-2.859c2.526,-1.716 5.265,-2.574 8.22,-2.574c1.382,0 2.669,0.262 3.861,0.787" style="fill:#fff;fill-rule:nonzero;"/><path d="M369.108,160.887l-7.863,0l0,-19.728c0,-4.002 -0.476,-6.575 -1.429,-7.719c-0.954,-1.144 -2.383,-1.716 -4.289,-1.716c-2.432,0 -5.028,0.905 -7.791,2.717c0.332,0.953 0.499,3.599 0.499,7.934l0,18.512l-7.79,0l0,-19.227c0,-4.526 -0.549,-7.362 -1.644,-8.506c-0.906,-0.952 -2.215,-1.43 -3.931,-1.43c-2.573,0 -5.075,0.811 -7.505,2.431l0,26.732l-7.862,0l0,-34.881l6.861,0l0,2.573c3.24,-2.383 6.648,-3.573 10.222,-3.573c3.619,0 6.478,1.311 8.577,3.931c4.003,-2.62 7.862,-3.931 11.579,-3.931c3.67,0 6.55,1.049 8.646,3.145c1.67,1.668 2.765,3.837 3.289,6.504c0.285,1.668 0.431,4.599 0.431,8.792l0,17.44Z" style="fill:#fff;fill-rule:nonzero;"/><path d="M396.386,153.167l0,-9.219l-1.644,0c-5.481,0 -9.103,0.905 -10.864,2.715c-0.908,0.906 -1.36,2.098 -1.36,3.573c0,1.716 0.583,3.027 1.75,3.932c1.168,0.906 2.633,1.358 4.399,1.358c2.238,0 4.81,-0.785 7.719,-2.359m7.432,7.719l-6.863,0l0,-2.571c-3.428,2.191 -6.859,3.286 -10.291,3.286c-3.384,0 -6.1,-1.012 -8.147,-3.038c-2.05,-2.024 -3.074,-4.681 -3.074,-7.969c0,-8.149 6.55,-12.223 19.656,-12.223l1.287,0l0,-1.358c0,-2.144 -0.383,-3.597 -1.145,-4.36c-1.049,-1.048 -2.932,-1.572 -5.645,-1.572c-3.1,0 -6.243,0.906 -9.438,2.716l-2.713,-5.075c0.809,-0.715 2.047,-1.405 3.716,-2.073c2.761,-1.144 5.787,-1.715 9.077,-1.715c4.763,0 8.387,1.24 10.864,3.718c1.239,1.239 2.024,2.786 2.359,4.646c0.237,1.191 0.357,3.239 0.357,6.145l0,21.443Z" style="fill:#fff;fill-rule:nonzero;"/><path d="M434.247,125.792l-1.787,6.076c-0.668,-0.143 -1.456,-0.215 -2.359,-0.215c-4.242,0 -7.601,1.787 -10.077,5.361l0,23.873l-7.862,0l0,-34.88l6.86,0l0,4.431c0.572,-0.905 1.618,-1.858 3.146,-2.859c2.523,-1.715 5.262,-2.573 8.22,-2.573c1.38,0 2.666,0.262 3.859,0.786" style="fill:#fff;fill-rule:nonzero;"/><path d="M471.364,160.887l-9.506,0l-14.151,-17.583l0,17.583l-7.863,0l0,-51.678l7.863,0l0,31.736l13.793,-14.939l9.437,0l-15.083,15.868l15.51,19.013Z" style="fill:#fff;fill-rule:nonzero;"/><path d="M496.685,139.944c0,-2.145 -0.451,-4.003 -1.356,-5.574c-1.335,-2.24 -3.362,-3.361 -6.076,-3.361c-2.431,0 -4.446,0.822 -6.042,2.468c-1.597,1.642 -2.561,3.799 -2.892,6.467l16.366,0Zm7.433,3.073c0,0.429 -0.022,0.965 -0.07,1.608c-0.048,0.645 -0.072,1.037 -0.072,1.181l-23.657,0c0,2.478 0.736,4.622 2.214,6.433c1.811,2.145 4.383,3.217 7.72,3.217c2.859,0 6.049,-0.882 9.576,-2.646l2.718,5.147c-3.574,2.525 -7.889,3.787 -12.936,3.787c-5.34,0 -9.532,-1.738 -12.582,-5.216c-2.953,-3.288 -4.431,-7.577 -4.431,-12.866c0,-5.479 1.525,-9.96 4.574,-13.439c3.048,-3.477 7.028,-5.218 11.935,-5.218c4.719,0 8.399,1.597 11.047,4.789c2.643,3.194 3.964,7.602 3.964,13.223" style="fill:#fff;fill-rule:nonzero;"/><path d="M533.147,159.744c-2.191,1.381 -4.909,2.073 -8.147,2.073c-3.672,0 -6.48,-0.977 -8.436,-2.932c-1.239,-1.238 -2.027,-2.809 -2.358,-4.716c-0.19,-1.048 -0.285,-3.05 -0.285,-6.006l0,-15.723l-6.075,0l0,-6.433l6.075,0l0,-9.793l7.863,0l0,9.793l10.291,0l0,6.433l-10.291,0l0,16.438c0,2.05 0.214,3.479 0.642,4.288c0.667,1.336 2.024,2.003 4.074,2.003c1.192,0 2.742,-0.31 4.646,-0.93l2.001,5.505Z" style="fill:#fff;fill-rule:nonzero;"/><path d="M547.01,160.887l-7.863,0l0,-34.881l7.863,0l0,34.881Zm0.642,-45.316c0,1.286 -0.441,2.371 -1.324,3.252c-0.882,0.882 -1.966,1.322 -3.249,1.322c-1.287,0 -2.385,-0.44 -3.29,-1.322c-0.905,-0.881 -1.356,-1.966 -1.356,-3.252c0,-1.287 0.451,-2.382 1.356,-3.288c0.905,-0.905 2.003,-1.358 3.29,-1.358c1.283,0 2.367,0.453 3.249,1.358c0.883,0.906 1.324,2.001 1.324,3.288" style="fill:#fff;fill-rule:nonzero;"/><path d="M585.172,160.887l-7.863,0l0,-19.084c0,-4.622 -0.524,-7.457 -1.572,-8.506c-1.047,-1.048 -2.526,-1.573 -4.43,-1.573c-2.429,0 -5.029,0.858 -7.79,2.574l0,26.589l-7.862,0l0,-34.881l6.859,0l0,2.573c3.289,-2.383 6.743,-3.573 10.364,-3.573c3.669,0 6.576,1.072 8.72,3.216c1.62,1.621 2.669,3.623 3.146,6.004c0.285,1.43 0.428,3.814 0.428,7.148l0,19.513Z" style="fill:#fff;fill-rule:nonzero;"/><path d="M615.946,152.167l0,-19.443c-2.001,-0.856 -4.026,-1.285 -6.076,-1.285c-3.002,0 -5.455,1.084 -7.362,3.251c-1.904,2.17 -2.859,5.063 -2.859,8.686c0,3.384 0.871,6.087 2.61,8.111c1.74,2.026 3.917,3.038 6.539,3.038c2.669,0 5.051,-0.785 7.148,-2.358m7.792,8.505c0,3.098 -0.167,5.385 -0.501,6.863c-0.527,2.096 -1.547,3.931 -3.073,5.504c-2.909,2.906 -7.03,4.358 -12.365,4.358c-3.861,0 -7.411,-0.762 -10.652,-2.285c-2.05,-0.907 -3.453,-1.787 -4.217,-2.647l3.29,-5.144c4.095,2.333 7.669,3.502 10.721,3.502c2.904,0 5.132,-0.681 6.682,-2.037c1.549,-1.358 2.323,-4.016 2.323,-7.97l0,-2.36c-2.859,1.621 -5.788,2.432 -8.792,2.432c-4.814,0 -8.626,-1.717 -11.436,-5.147c-2.67,-3.192 -4.001,-7.195 -4.001,-12.008c0,-5.336 1.702,-9.792 5.109,-13.366c3.406,-3.574 7.804,-5.361 13.187,-5.361c4.24,0 8.818,1.168 13.725,3.503l0,32.163Z" style="fill:#fff;fill-rule:nonzero;"/><path d="M338.729,222.867l0,-9.219l-1.644,0c-5.479,0 -9.102,0.905 -10.864,2.714c-0.905,0.907 -1.358,2.099 -1.358,3.574c0,1.716 0.583,3.026 1.751,3.931c1.166,0.907 2.633,1.358 4.396,1.358c2.24,0 4.811,-0.784 7.719,-2.358m7.434,7.719l-6.862,0l0,-2.572c-3.431,2.192 -6.862,3.287 -10.293,3.287c-3.383,0 -6.1,-1.012 -8.148,-3.038c-2.05,-2.024 -3.074,-4.682 -3.074,-7.969c0,-8.149 6.552,-12.223 19.657,-12.223l1.286,0l0,-1.358c0,-2.144 -0.382,-3.597 -1.143,-4.36c-1.05,-1.047 -2.931,-1.571 -5.647,-1.571c-3.098,0 -6.243,0.905 -9.435,2.714l-2.716,-5.074c0.809,-0.715 2.048,-1.404 3.717,-2.073c2.763,-1.144 5.789,-1.716 9.077,-1.716c4.765,0 8.386,1.24 10.865,3.719c1.239,1.239 2.024,2.787 2.358,4.646c0.239,1.19 0.358,3.239 0.358,6.145l0,21.443Z" style="fill:#fff;fill-rule:nonzero;"/><path d="M388.951,230.587l-9.507,0l-14.153,-17.584l0,17.584l-7.861,0l0,-51.678l7.861,0l0,31.736l13.796,-14.939l9.434,0l-15.081,15.868l15.511,19.013Z" style="fill:#fff;fill-rule:nonzero;"/><path d="M415.207,222.867l0,-9.219l-1.644,0c-5.48,0 -9.103,0.905 -10.864,2.714c-0.908,0.907 -1.36,2.099 -1.36,3.574c0,1.716 0.584,3.026 1.75,3.931c1.168,0.907 2.633,1.358 4.399,1.358c2.238,0 4.81,-0.784 7.719,-2.358m7.433,7.719l-6.864,0l0,-2.572c-3.428,2.192 -6.859,3.287 -10.291,3.287c-3.384,0 -6.1,-1.012 -8.147,-3.038c-2.05,-2.024 -3.073,-4.682 -3.073,-7.969c0,-8.149 6.55,-12.223 19.656,-12.223l1.286,0l0,-1.358c0,-2.144 -0.383,-3.597 -1.145,-4.36c-1.049,-1.047 -2.932,-1.571 -5.645,-1.571c-3.099,0 -6.243,0.905 -9.438,2.714l-2.713,-5.074c0.809,-0.715 2.047,-1.404 3.717,-2.073c2.76,-1.144 5.787,-1.716 9.076,-1.716c4.763,0 8.387,1.24 10.864,3.719c1.24,1.239 2.025,2.787 2.359,4.646c0.237,1.19 0.358,3.239 0.358,6.145l0,21.443Z" style="fill:#fff;fill-rule:nonzero;"/><path d="M456.421,222.509l0,-19.37c-1.907,-1.238 -3.957,-1.858 -6.148,-1.858c-3.001,0 -5.444,1.072 -7.327,3.216c-1.881,2.144 -2.822,5.124 -2.822,8.935c0,3.479 0.882,6.267 2.644,8.363c1.762,2.098 3.978,3.145 6.648,3.145c2.239,0 4.573,-0.81 7.005,-2.431m7.863,8.077l-6.864,0l0,-2.501c-3.143,2.241 -6.36,3.359 -9.649,3.359c-4.67,0 -8.434,-1.654 -11.293,-4.968c-2.859,-3.311 -4.289,-7.612 -4.289,-12.901c0,-5.478 1.633,-9.994 4.898,-13.545c3.263,-3.548 7.277,-5.324 12.043,-5.324c2.525,0 4.954,0.596 7.291,1.787l0,-17.585l7.863,0l0,51.678Z" style="fill:#fff;fill-rule:nonzero;"/><path d="M498.277,209.643c0,-2.144 -0.452,-4.002 -1.357,-5.573c-1.335,-2.24 -3.362,-3.361 -6.075,-3.361c-2.432,0 -4.446,0.822 -6.043,2.467c-1.597,1.643 -2.56,3.8 -2.892,6.467l16.367,0Zm7.432,3.074c0,0.429 -0.021,0.965 -0.07,1.608c-0.047,0.645 -0.071,1.037 -0.071,1.181l-23.658,0c0,2.477 0.736,4.622 2.215,6.433c1.811,2.144 4.383,3.216 7.719,3.216c2.859,0 6.05,-0.882 9.577,-2.646l2.717,5.148c-3.574,2.525 -7.888,3.787 -12.936,3.787c-5.339,0 -9.532,-1.738 -12.581,-5.216c-2.954,-3.288 -4.432,-7.577 -4.432,-12.866c0,-5.48 1.526,-9.96 4.575,-13.439c3.048,-3.477 7.027,-5.217 11.935,-5.217c4.719,0 8.399,1.597 11.046,4.788c2.643,3.193 3.964,7.602 3.964,13.223" style="fill:#fff;fill-rule:nonzero;"/><path d="M565.139,230.587l-7.863,0l0,-19.728c0,-4.003 -0.477,-6.576 -1.429,-7.719c-0.955,-1.144 -2.385,-1.716 -4.289,-1.716c-2.432,0 -5.029,0.905 -7.792,2.716c0.331,0.954 0.499,3.6 0.499,7.934l0,18.513l-7.79,0l0,-19.227c0,-4.526 -0.548,-7.363 -1.644,-8.506c-0.905,-0.952 -2.214,-1.43 -3.931,-1.43c-2.572,0 -5.074,0.811 -7.505,2.43l0,26.733l-7.863,0l0,-34.881l6.863,0l0,2.573c3.238,-2.383 6.648,-3.574 10.222,-3.574c3.618,0 6.477,1.311 8.577,3.932c4.001,-2.621 7.862,-3.932 11.579,-3.932c3.668,0 6.55,1.05 8.646,3.145c1.67,1.67 2.765,3.836 3.289,6.505c0.285,1.668 0.431,4.599 0.431,8.791l0,17.441Z" style="fill:#fff;fill-rule:nonzero;"/><path d="M584.131,230.587l-7.863,0l0,-34.881l7.863,0l0,34.881Zm0.641,-45.316c0,1.286 -0.441,2.371 -1.323,3.252c-0.882,0.882 -1.966,1.322 -3.25,1.322c-1.288,0 -2.384,-0.44 -3.289,-1.322c-0.905,-0.881 -1.357,-1.966 -1.357,-3.252c0,-1.287 0.452,-2.382 1.357,-3.288c0.905,-0.905 2.001,-1.358 3.289,-1.358c1.284,0 2.368,0.453 3.25,1.358c0.882,0.906 1.323,2.001 1.323,3.288" style="fill:#fff;fill-rule:nonzero;"/><path d="M617.948,209.643c0,-2.144 -0.455,-4.002 -1.36,-5.573c-1.335,-2.24 -3.359,-3.361 -6.075,-3.361c-2.429,0 -4.443,0.822 -6.04,2.467c-1.597,1.643 -2.563,3.8 -2.895,6.467l16.37,0Zm7.432,3.074c0,0.429 -0.024,0.965 -0.073,1.608c-0.047,0.645 -0.069,1.037 -0.069,1.181l-23.66,0c0,2.477 0.739,4.622 2.217,6.433c1.809,2.144 4.383,3.216 7.72,3.216c2.859,0 6.05,-0.882 9.576,-2.646l2.718,5.148c-3.574,2.525 -7.888,3.787 -12.939,3.787c-5.336,0 -9.529,-1.738 -12.578,-5.216c-2.957,-3.288 -4.435,-7.577 -4.435,-12.866c0,-5.48 1.526,-9.96 4.578,-13.439c3.047,-3.477 7.027,-5.217 11.935,-5.217c4.719,0 8.398,1.597 11.043,4.788c2.643,3.193 3.967,7.602 3.967,13.223" style="fill:#fff;fill-rule:nonzero;"/></g></svg>