<?xml version="1.0" encoding="UTF-8" standalone="no"?><!DOCTYPE svg PUBLIC "-//W3C//DTD SVG 1.1//EN" "http://www.w3.org/Graphics/SVG/1.1/DTD/svg11.dtd"><svg width="100%" height="100%" viewBox="0 0 80 40" version="1.1" xmlns="http://www.w3.org/2000/svg" xmlns:xlink="http://www.w3.org/1999/xlink" xml:space="preserve" xmlns:serif="http://www.serif.com/" style="fill-rule:evenodd;clip-rule:evenodd;stroke-linejoin:round;stroke-miterlimit:2;"><rect id="ArtBoard1" x="0" y="0" width="80" height="40" style="fill:none;"/><path d="M61.385,24.499l-2.812,0c-0.468,0 -0.844,-0.376 -0.844,-0.844l0,-5.907l-3.083,0c-0.626,0 -0.939,-0.756 -0.496,-1.199l5.347,-5.351c0.264,-0.264 0.696,-0.264 0.96,0l5.351,5.351c0.443,0.443 0.13,1.199 -0.496,1.199l-3.083,0l0,5.907c0,0.468 -0.376,0.844 -0.844,0.844Zm7.594,-0.281l0,3.938c0,0.468 -0.376,0.844 -0.844,0.844l-16.312,0c-0.468,0 -0.844,-0.376 -0.844,-0.844l0,-3.938c0,-0.468 0.376,-0.844 0.844,-0.844l4.781,0l0,0.281c0,1.087 0.882,1.97 1.969,1.97l2.812,0c1.086,0 1.969,-0.883 1.969,-1.97l0,-0.281l4.781,0c0.468,0 0.844,0.376 0.844,0.844Zm-4.36,3.094c0,-0.387 -0.316,-0.703 -0.703,-0.703c-0.386,0 -0.703,0.316 -0.703,0.703c0,0.387 0.317,0.703 0.703,0.703c0.387,0 0.703,-0.316 0.703,-0.703Zm2.25,0c0,-0.387 -0.316,-0.703 -0.703,-0.703c-0.386,0 -0.703,0.316 -0.703,0.703c0,0.387 0.317,0.703 0.703,0.703c0.387,0 0.703,-0.316 0.703,-0.703Z" style="fill:#fff;fill-rule:nonzero;"/><path d="M21.385,24.499l-2.812,0c-0.468,0 -0.844,-0.376 -0.844,-0.844l0,-5.907l-3.083,0c-0.626,0 -0.939,-0.756 -0.496,-1.199l5.347,-5.351c0.264,-0.264 0.696,-0.264 0.96,0l5.351,5.351c0.443,0.443 0.13,1.199 -0.496,1.199l-3.083,0l0,5.907c0,0.468 -0.376,0.844 -0.844,0.844Zm7.594,-0.281l0,3.938c0,0.468 -0.376,0.844 -0.844,0.844l-16.312,0c-0.468,0 -0.844,-0.376 -0.844,-0.844l0,-3.938c0,-0.468 0.376,-0.844 0.844,-0.844l4.781,0l0,0.281c0,1.087 0.882,1.97 1.969,1.97l2.812,0c1.086,0 1.969,-0.883 1.969,-1.97l0,-0.281l4.781,0c0.468,0 0.844,0.376 0.844,0.844Zm-4.36,3.094c0,-0.387 -0.316,-0.703 -0.703,-0.703c-0.386,0 -0.703,0.316 -0.703,0.703c0,0.387 0.317,0.703 0.703,0.703c0.387,0 0.703,-0.316 0.703,-0.703Zm2.25,0c0,-0.387 -0.316,-0.703 -0.703,-0.703c-0.386,0 -0.703,0.316 -0.703,0.703c0,0.387 0.317,0.703 0.703,0.703c0.387,0 0.703,-0.316 0.703,-0.703Z" style="fill:#119ad3;fill-rule:nonzero;"/></svg>