<?xml version="1.0" encoding="utf-8"?>
<!-- Generator: Adobe Illustrator 21.1.0, SVG Export Plug-In . SVG Version: 6.00 Build 0)  -->
<svg version="1.1" id="Ebene_1" xmlns="http://www.w3.org/2000/svg" xmlns:xlink="http://www.w3.org/1999/xlink" x="0px" y="0px"
	 viewBox="0 0 435.4 184" style="enable-background:new 0 0 435.4 184;" xml:space="preserve">
<style type="text/css">
	.bogen{fill:url(#SVGID_1_);stroke:#FFFFFF;stroke-width:0.25;stroke-miterlimit:1;}
	.st0{fill:url(#SVGID_2_);}
	.st1{fill:#696965;}
	.st2{fill:#236AA3;}
</style>
<linearGradient id="SVGID_1_" gradientUnits="userSpaceOnUse" x1="-47.7158" y1="644.8335" x2="-47.0087" y2="644.1264">
	<stop  offset="0" style="stop-color:#259E2E"/>
	<stop  offset="0.9831" style="stop-color:#1C381D"/>
</linearGradient>
<linearGradient id="SVGID_2_" gradientUnits="userSpaceOnUse" x1="0" y1="92.0024" x2="184" y2="92.0024">
	<stop  offset="0" style="stop-color:#2B9AC6"/>
	<stop  offset="0.1221" style="stop-color:#2896C2"/>
	<stop  offset="0.2818" style="stop-color:#228AB8"/>
	<stop  offset="0.4626" style="stop-color:#1977A7"/>
	<stop  offset="0.6587" style="stop-color:#125E90"/>
	<stop  offset="0.865" style="stop-color:#094277"/>
	<stop  offset="1" style="stop-color:#003069"/>
</linearGradient>
<path class="st0" d="M21,92c0-39.2,31.8-71,71-71c39.2,0,71,31.8,71,71c0,39.2-31.8,71-71,71C52.8,163,21,131.2,21,92z M92,184
	c50.8,0,92-41.2,92-92c0-50.8-41.2-92-92-92C41.2,0,0,41.2,0,92C0,142.8,41.2,184,92,184z M92,122.7c16.9,0,30.7-13.7,30.7-30.7
	c0-16.9-13.7-30.7-30.7-30.7S61.3,75.1,61.3,92C61.3,108.9,75.1,122.7,92,122.7z"/>
<g>
	<path class="st1" d="M255.5,61.3H250V47.5c0-2.8-0.3-4.6-1-5.4c-0.7-0.8-1.7-1.2-3-1.2c-1.7,0-3.5,0.6-5.5,1.9
		c0.2,0.7,0.3,2.5,0.3,5.5v13h-5.4V47.9c0-3.2-0.4-5.1-1.1-5.9c-0.6-0.7-1.6-1-2.8-1c-1.8,0-3.6,0.6-5.2,1.7v18.7h-5.5V36.9h4.8v1.8
		c2.3-1.7,4.6-2.5,7.1-2.5c2.5,0,4.5,0.9,6,2.8c2.8-1.8,5.5-2.8,8.1-2.8c2.6,0,4.6,0.7,6,2.2c1.2,1.2,1.9,2.7,2.3,4.5
		c0.2,1.2,0.3,3.2,0.3,6.1V61.3z"/>
	<path class="st1" d="M282.1,61.3h-4.8v-1.9c-2.2,1.7-4.7,2.5-7.2,2.5c-2.6,0-4.6-0.8-6.1-2.2c-1.1-1.1-1.9-2.5-2.2-4.2
		c-0.2-1-0.3-2.7-0.3-5V36.9h5.5v13.3c0,1.7,0,2.8,0.1,3.3c0.2,1.4,0.6,2.3,1.3,2.9c0.7,0.6,1.7,0.9,2.9,0.9c1.4,0,3.2-0.6,5.3-1.8
		V36.9h5.5V61.3z M270.1,29.8c0,0.9-0.3,1.6-0.9,2.2c-0.6,0.6-1.3,0.9-2.2,0.9c-0.9,0-1.6-0.3-2.2-0.9c-0.6-0.6-0.9-1.3-0.9-2.2
		c0-0.9,0.3-1.6,0.9-2.2c0.6-0.6,1.3-0.9,2.2-0.9c0.9,0,1.6,0.3,2.2,0.9C269.8,28.2,270.1,28.9,270.1,29.8z M279.1,29.8
		c0,0.9-0.3,1.6-0.9,2.2c-0.6,0.6-1.3,0.9-2.2,0.9c-0.9,0-1.6-0.3-2.2-0.9c-0.6-0.6-0.9-1.3-0.9-2.2c0-0.9,0.3-1.6,0.9-2.2
		c0.6-0.6,1.3-0.9,2.2-0.9c0.9,0,1.6,0.3,2.2,0.9C278.9,28.2,279.1,28.9,279.1,29.8z"/>
	<path class="st1" d="M309.3,61.3h-5.5V48c0-3.2-0.4-5.2-1.1-5.9c-0.7-0.7-1.8-1.1-3.1-1.1c-1.7,0-3.5,0.6-5.4,1.8v18.6h-5.5V36.9
		h4.8v1.8c2.3-1.7,4.7-2.5,7.2-2.5c2.6,0,4.6,0.8,6.1,2.2c1.1,1.1,1.9,2.5,2.2,4.2c0.2,1,0.3,2.7,0.3,5V61.3z"/>
	<path class="st1" d="M335.6,59.1c-0.4,0.4-1.2,0.9-2.5,1.5c-2,0.9-4.2,1.4-6.4,1.4c-3.6,0-6.6-1.2-8.8-3.5c-2.2-2.3-3.4-5.3-3.4-9
		c0-3.8,1.2-7,3.6-9.5c2.4-2.5,5.4-3.7,9.1-3.7c2.1,0,4,0.4,5.8,1.2c1.2,0.6,2,1.1,2.3,1.6l-2.2,3.4c-1.7-1.1-3.5-1.7-5.5-1.7
		c-2.3,0-4.1,0.8-5.6,2.5c-1.3,1.6-1.9,3.5-1.9,5.7c0,2.5,0.6,4.5,1.9,6c1.3,1.5,3.1,2.3,5.3,2.3c1.8,0,3.9-0.6,6.2-1.9L335.6,59.1z
		"/>
	<path class="st1" d="M360.5,61.3H355V48c0-3.2-0.4-5.2-1.1-5.9c-0.7-0.7-1.8-1.1-3.1-1.1c-1.7,0-3.5,0.6-5.4,1.8v18.6h-5.5V25.2
		h5.5v13.1c2.2-1.4,4.3-2.1,6.5-2.1c2.6,0,4.6,0.8,6.1,2.2c1.1,1.1,1.9,2.5,2.2,4.2c0.2,1,0.3,2.7,0.3,5V61.3z"/>
	<path class="st1" d="M387.5,61.3H382V48c0-3.2-0.4-5.2-1.1-5.9c-0.7-0.7-1.8-1.1-3.1-1.1c-1.7,0-3.5,0.6-5.4,1.8v18.6h-5.5V36.9
		h4.8v1.8c2.3-1.7,4.7-2.5,7.2-2.5c2.6,0,4.6,0.8,6.1,2.2c1.1,1.1,1.9,2.5,2.2,4.2c0.2,1,0.3,2.7,0.3,5V61.3z"/>
	<path class="st1" d="M414.7,48.8c0,0.3,0,0.7,0,1.1c0,0.5-0.1,0.7-0.1,0.8H398c0,1.7,0.5,3.2,1.5,4.5c1.3,1.5,3.1,2.2,5.4,2.2
		c2,0,4.2-0.6,6.7-1.9l1.9,3.6c-2.5,1.8-5.5,2.6-9,2.6c-3.7,0-6.7-1.2-8.8-3.6c-2.1-2.3-3.1-5.3-3.1-9c0-3.8,1.1-7,3.2-9.4
		c2.1-2.4,4.9-3.6,8.3-3.6c3.3,0,5.9,1.1,7.7,3.4C413.7,41.8,414.7,44.9,414.7,48.8z M409.5,46.7c0-1.5-0.3-2.8-0.9-3.9
		c-0.9-1.6-2.4-2.4-4.2-2.4c-1.7,0-3.1,0.6-4.2,1.7c-1.1,1.1-1.8,2.7-2,4.5H409.5z"/>
	<path class="st1" d="M435.4,36.8l-1.2,4.2c-0.5-0.1-1-0.2-1.7-0.2c-3,0-5.3,1.2-7.1,3.8v16.7H420V36.9h4.8V40
		c0.4-0.6,1.1-1.3,2.2-2c1.8-1.2,3.7-1.8,5.8-1.8C433.7,36.2,434.6,36.4,435.4,36.8z"/>
	<path class="st2" d="M255.5,110.1H250V96.3c0-2.8-0.3-4.6-1-5.4c-0.7-0.8-1.7-1.2-3-1.2c-1.7,0-3.5,0.6-5.5,1.9
		c0.2,0.7,0.3,2.5,0.3,5.5v13h-5.4V96.6c0-3.2-0.4-5.1-1.1-5.9c-0.6-0.7-1.6-1-2.8-1c-1.8,0-3.6,0.6-5.2,1.7v18.7h-5.5V85.7h4.8v1.8
		c2.3-1.7,4.6-2.5,7.1-2.5c2.5,0,4.5,0.9,6,2.8c2.8-1.8,5.5-2.8,8.1-2.8c2.6,0,4.6,0.7,6,2.2c1.2,1.2,1.9,2.7,2.3,4.6
		c0.2,1.2,0.3,3.2,0.3,6.1V110.1z"/>
	<path class="st2" d="M279.8,110.1H275v-1.8c-2.4,1.5-4.8,2.3-7.2,2.3c-2.4,0-4.3-0.7-5.7-2.1c-1.4-1.4-2.2-3.3-2.2-5.6
		c0-5.7,4.6-8.5,13.8-8.5h0.9v-1c0-1.5-0.3-2.5-0.8-3c-0.7-0.7-2.1-1.1-3.9-1.1c-2.2,0-4.4,0.6-6.6,1.9l-1.9-3.5
		c0.6-0.5,1.4-1,2.6-1.5c1.9-0.8,4-1.2,6.3-1.2c3.3,0,5.9,0.9,7.6,2.6c0.9,0.9,1.4,1.9,1.7,3.2c0.2,0.8,0.2,2.3,0.2,4.3V110.1z
		 M274.6,104.7v-6.4h-1.2c-3.8,0-6.4,0.6-7.6,1.9c-0.6,0.6-1,1.5-1,2.5c0,1.2,0.4,2.1,1.2,2.8c0.8,0.6,1.8,1,3.1,1
		C270.8,106.3,272.6,105.8,274.6,104.7z"/>
	<path class="st2" d="M301.1,85.5l-1.2,4.2c-0.5-0.1-1-0.2-1.7-0.2c-3,0-5.3,1.2-7,3.8v16.7h-5.5V85.7h4.8v3.1
		c0.4-0.6,1.1-1.3,2.2-2c1.8-1.2,3.7-1.8,5.8-1.8C299.4,85,300.3,85.1,301.1,85.5z"/>
	<path class="st2" d="M327.1,110.1h-6.7l-9.9-12.3v12.3H305V73.9h5.5v22.2l9.6-10.4h6.6l-10.6,11.1L327.1,110.1z"/>
	<path class="st2" d="M350,97.6c0,0.3,0,0.7,0,1.1c0,0.5-0.1,0.7-0.1,0.8h-16.5c0,1.7,0.5,3.2,1.5,4.5c1.3,1.5,3.1,2.2,5.4,2.2
		c2,0,4.2-0.6,6.7-1.9l1.9,3.6c-2.5,1.8-5.5,2.6-9,2.6c-3.7,0-6.7-1.2-8.8-3.6c-2.1-2.3-3.1-5.3-3.1-9c0-3.8,1.1-7,3.2-9.4
		c2.1-2.4,4.9-3.6,8.3-3.6c3.3,0,5.9,1.1,7.7,3.4C349,90.5,350,93.6,350,97.6z M344.8,95.4c0-1.5-0.3-2.8-0.9-3.9
		c-0.9-1.6-2.4-2.4-4.2-2.4c-1.7,0-3.1,0.6-4.2,1.7c-1.1,1.1-1.8,2.7-2,4.5H344.8z"/>
	<path class="st2" d="M370.3,109.3c-1.5,1-3.4,1.5-5.7,1.5c-2.6,0-4.5-0.7-5.9-2.1c-0.9-0.9-1.4-2-1.7-3.3c-0.1-0.7-0.2-2.1-0.2-4.2
		v-11h-4.2v-4.5h4.2v-6.9h5.5v6.9h7.2v4.5h-7.2v11.5c0,1.4,0.2,2.4,0.4,3c0.5,0.9,1.4,1.4,2.8,1.4c0.8,0,1.9-0.2,3.2-0.7
		L370.3,109.3z"/>
	<path class="st2" d="M380.4,78.4c0,0.9-0.3,1.7-0.9,2.3c-0.6,0.6-1.4,0.9-2.3,0.9c-0.9,0-1.7-0.3-2.3-0.9c-0.6-0.6-0.9-1.4-0.9-2.3
		c0-0.9,0.3-1.7,0.9-2.3c0.6-0.6,1.4-1,2.3-1c0.9,0,1.7,0.3,2.3,1C380.1,76.7,380.4,77.5,380.4,78.4z M380,110.1h-5.5V85.7h5.5
		V110.1z"/>
	<path class="st2" d="M406.7,110.1h-5.5V96.7c0-3.2-0.4-5.2-1.1-6c-0.7-0.7-1.8-1.1-3.1-1.1c-1.7,0-3.5,0.6-5.4,1.8v18.6H386V85.7
		h4.8v1.8c2.3-1.7,4.7-2.5,7.2-2.5c2.6,0,4.6,0.8,6.1,2.2c1.1,1.1,1.9,2.5,2.2,4.2c0.2,1,0.3,2.7,0.3,5V110.1z"/>
	<path class="st2" d="M433.6,109.9c0,2.2-0.1,3.8-0.4,4.8c-0.4,1.5-1.1,2.8-2.1,3.8c-2,2-4.9,3-8.7,3c-2.7,0-5.2-0.5-7.5-1.6
		c-1.4-0.6-2.4-1.2-2.9-1.9l2.3-3.6c2.9,1.6,5.4,2.5,7.5,2.5c2,0,3.6-0.5,4.7-1.4c1.1-1,1.6-2.8,1.6-5.6v-1.7c-2,1.1-4,1.7-6.2,1.7
		c-3.4,0-6-1.2-8-3.6c-1.9-2.2-2.8-5-2.8-8.4c0-3.7,1.2-6.8,3.6-9.4c2.4-2.5,5.5-3.8,9.2-3.8c3,0,6.2,0.8,9.6,2.5V109.9z M428.2,104
		V90.4c-1.4-0.6-2.8-0.9-4.2-0.9c-2.1,0-3.8,0.8-5.2,2.3c-1.3,1.5-2,3.5-2,6.1c0,2.4,0.6,4.3,1.8,5.7c1.2,1.4,2.7,2.1,4.6,2.1
		C425.1,105.6,426.7,105.1,428.2,104z"/>
	<path class="st1" d="M239.5,158.8h-4.8V157c-2.4,1.5-4.8,2.3-7.2,2.3c-2.4,0-4.3-0.7-5.7-2.1c-1.4-1.4-2.1-3.3-2.1-5.6
		c0-5.7,4.6-8.5,13.7-8.5h0.9v-1c0-1.5-0.3-2.5-0.8-3c-0.7-0.7-2.1-1.1-4-1.1c-2.2,0-4.4,0.6-6.6,1.9l-1.9-3.5
		c0.6-0.5,1.4-1,2.6-1.5c1.9-0.8,4-1.2,6.4-1.2c3.3,0,5.9,0.9,7.6,2.6c0.9,0.9,1.4,2,1.6,3.2c0.2,0.8,0.2,2.3,0.2,4.3V158.8z
		 M234.3,153.4V147h-1.1c-3.8,0-6.4,0.6-7.6,1.9c-0.6,0.6-0.9,1.5-0.9,2.5c0,1.2,0.4,2.1,1.2,2.8c0.8,0.6,1.8,1,3.1,1
		C230.4,155.1,232.2,154.5,234.3,153.4z"/>
	<path class="st1" d="M269.4,158.8h-6.7l-9.9-12.3v12.3h-5.5v-36.2h5.5v22.2l9.7-10.5h6.6l-10.5,11.1L269.4,158.8z"/>
	<path class="st1" d="M293,158.8h-4.8V157c-2.4,1.5-4.8,2.3-7.2,2.3c-2.4,0-4.3-0.7-5.7-2.1c-1.4-1.4-2.2-3.3-2.2-5.6
		c0-5.7,4.6-8.5,13.8-8.5h0.9v-1c0-1.5-0.3-2.5-0.8-3c-0.7-0.7-2.1-1.1-3.9-1.1c-2.2,0-4.4,0.6-6.6,1.9l-1.9-3.5
		c0.6-0.5,1.4-1,2.6-1.5c1.9-0.8,4-1.2,6.3-1.2c3.3,0,5.9,0.9,7.6,2.6c0.9,0.9,1.4,2,1.7,3.2c0.2,0.8,0.2,2.3,0.2,4.3V158.8z
		 M287.8,153.4V147h-1.2c-3.8,0-6.4,0.6-7.6,1.9c-0.6,0.6-1,1.5-1,2.5c0,1.2,0.4,2.1,1.2,2.8c0.8,0.6,1.8,1,3.1,1
		C283.9,155.1,285.7,154.5,287.8,153.4z"/>
	<path class="st1" d="M322.1,158.8h-4.8v-1.8c-2.2,1.6-4.4,2.3-6.8,2.3c-3.3,0-5.9-1.2-7.9-3.5c-2-2.3-3-5.3-3-9
		c0-3.8,1.1-7,3.4-9.5c2.3-2.5,5.1-3.7,8.4-3.7c1.8,0,3.5,0.4,5.1,1.2v-12.3h5.5V158.8z M316.6,153.2v-13.5
		c-1.3-0.9-2.8-1.3-4.3-1.3c-2.1,0-3.8,0.8-5.1,2.2s-2,3.6-2,6.2c0,2.4,0.6,4.4,1.8,5.8c1.2,1.5,2.8,2.2,4.7,2.2
		C313.3,154.9,314.9,154.3,316.6,153.2z"/>
	<path class="st1" d="M351.1,146.3c0,0.3,0,0.7,0,1.1c0,0.5-0.1,0.7-0.1,0.8h-16.5c0,1.7,0.5,3.2,1.5,4.5c1.3,1.5,3.1,2.2,5.4,2.2
		c2,0,4.2-0.6,6.7-1.9l1.9,3.6c-2.5,1.8-5.5,2.6-9,2.6c-3.7,0-6.7-1.2-8.8-3.6c-2.1-2.3-3.1-5.3-3.1-9c0-3.8,1.1-7,3.2-9.4
		c2.1-2.4,4.9-3.6,8.3-3.6c3.3,0,5.9,1.1,7.7,3.3C350.2,139.3,351.1,142.4,351.1,146.3z M345.9,144.2c0-1.5-0.3-2.8-0.9-3.9
		c-0.9-1.6-2.4-2.4-4.2-2.4c-1.7,0-3.1,0.6-4.2,1.7c-1.1,1.1-1.8,2.7-2,4.5H345.9z"/>
	<path class="st1" d="M392.7,158.8h-5.5V145c0-2.8-0.3-4.6-1-5.4c-0.7-0.8-1.7-1.2-3-1.2c-1.7,0-3.5,0.6-5.5,1.9
		c0.2,0.7,0.3,2.5,0.3,5.5v13h-5.4v-13.5c0-3.2-0.4-5.1-1.2-6c-0.6-0.7-1.5-1-2.8-1c-1.8,0-3.5,0.6-5.2,1.7v18.7H358v-24.4h4.8v1.8
		c2.3-1.7,4.7-2.5,7.2-2.5c2.5,0,4.5,0.9,6,2.8c2.8-1.8,5.5-2.8,8.1-2.8c2.6,0,4.6,0.7,6,2.2c1.2,1.2,1.9,2.7,2.3,4.6
		c0.2,1.2,0.3,3.2,0.3,6.1V158.8z"/>
	<path class="st1" d="M406.4,127.1c0,0.9-0.3,1.7-0.9,2.3c-0.6,0.6-1.4,0.9-2.3,0.9c-0.9,0-1.7-0.3-2.3-0.9
		c-0.6-0.6-0.9-1.4-0.9-2.3c0-0.9,0.3-1.7,0.9-2.3c0.6-0.6,1.4-1,2.3-1c0.9,0,1.7,0.3,2.3,1C406.1,125.5,406.4,126.2,406.4,127.1z
		 M405.9,158.8h-5.5v-24.4h5.5V158.8z"/>
	<path class="st1" d="M434.8,146.3c0,0.3,0,0.7-0.1,1.1c0,0.5,0,0.7,0,0.8h-16.6c0,1.7,0.5,3.2,1.6,4.5c1.3,1.5,3.1,2.2,5.4,2.2
		c2,0,4.2-0.6,6.7-1.9l1.9,3.6c-2.5,1.8-5.5,2.6-9.1,2.6c-3.7,0-6.7-1.2-8.8-3.6c-2.1-2.3-3.1-5.3-3.1-9c0-3.8,1.1-7,3.2-9.4
		c2.1-2.4,4.9-3.6,8.3-3.6c3.3,0,5.9,1.1,7.7,3.3C433.9,139.3,434.8,142.4,434.8,146.3z M429.6,144.2c0-1.5-0.3-2.8-1-3.9
		c-0.9-1.6-2.3-2.4-4.2-2.4c-1.7,0-3.1,0.6-4.2,1.7c-1.1,1.1-1.8,2.7-2,4.5H429.6z"/>
</g>
</svg>
